<mxfile host="app.diagrams.net" modified="2024-05-18T02:40:40.683Z" agent="Mozilla/5.0 (Windows NT 10.0; Win64; x64) AppleWebKit/537.36 (KHTML, like Gecko) Chrome/124.0.0.0 Safari/537.36" etag="MT3yWATlk6WztjLQH-Z7" version="24.4.4" type="device">
  <diagram name="第 1 页" id="mvng7VXiiR6nbuOvjNEm">
    <mxGraphModel dx="2261" dy="1915" grid="1" gridSize="10" guides="1" tooltips="1" connect="1" arrows="1" fold="1" page="1" pageScale="1" pageWidth="827" pageHeight="1169" math="0" shadow="0">
      <root>
        <mxCell id="0" />
        <mxCell id="1" parent="0" />
        <mxCell id="gAPJxlzcZR4D2_HXCBE--2" value="Process" style="ellipse;whiteSpace=wrap;html=1;aspect=fixed;fillColor=#d80073;strokeColor=#A50040;fontColor=#ffffff;" parent="1" vertex="1">
          <mxGeometry x="-390" y="90" width="80" height="80" as="geometry" />
        </mxCell>
        <mxCell id="gAPJxlzcZR4D2_HXCBE--67" value="" style="edgeStyle=orthogonalEdgeStyle;rounded=0;orthogonalLoop=1;jettySize=auto;html=1;exitX=0.5;exitY=1;exitDx=0;exitDy=0;fillColor=#e3c800;strokeColor=#B09500;" parent="1" source="gAPJxlzcZR4D2_HXCBE--11" target="gAPJxlzcZR4D2_HXCBE--66" edge="1">
          <mxGeometry relative="1" as="geometry" />
        </mxCell>
        <mxCell id="gAPJxlzcZR4D2_HXCBE--68" value="MODEL" style="edgeLabel;html=1;align=center;verticalAlign=middle;resizable=0;points=[];" parent="gAPJxlzcZR4D2_HXCBE--67" vertex="1" connectable="0">
          <mxGeometry x="-0.3" y="-1" relative="1" as="geometry">
            <mxPoint x="2" y="-1" as="offset" />
          </mxGeometry>
        </mxCell>
        <mxCell id="gAPJxlzcZR4D2_HXCBE--7" value="Version" style="ellipse;whiteSpace=wrap;html=1;aspect=fixed;fillColor=#1ba1e2;strokeColor=#006EAF;fontColor=#ffffff;" parent="1" vertex="1">
          <mxGeometry x="190" y="240" width="80" height="80" as="geometry" />
        </mxCell>
        <mxCell id="gAPJxlzcZR4D2_HXCBE--8" value="" style="endArrow=classic;html=1;rounded=0;fillColor=#dae8fc;strokeColor=#6c8ebf;shadow=0;entryX=0.013;entryY=0.313;entryDx=0;entryDy=0;entryPerimeter=0;exitX=0.95;exitY=0.663;exitDx=0;exitDy=0;exitPerimeter=0;" parent="1" source="gAPJxlzcZR4D2_HXCBE--2" target="gAPJxlzcZR4D2_HXCBE--7" edge="1">
          <mxGeometry width="50" height="50" relative="1" as="geometry">
            <mxPoint x="-310" y="150" as="sourcePoint" />
            <mxPoint x="200" y="270" as="targetPoint" />
          </mxGeometry>
        </mxCell>
        <mxCell id="gAPJxlzcZR4D2_HXCBE--9" value="VERSION" style="edgeLabel;html=1;align=center;verticalAlign=middle;resizable=0;points=[];" parent="gAPJxlzcZR4D2_HXCBE--8" vertex="1" connectable="0">
          <mxGeometry x="0.108" y="1" relative="1" as="geometry">
            <mxPoint as="offset" />
          </mxGeometry>
        </mxCell>
        <mxCell id="gAPJxlzcZR4D2_HXCBE--10" value="" style="endArrow=classic;html=1;rounded=0;entryX=0.938;entryY=0.275;entryDx=0;entryDy=0;entryPerimeter=0;exitX=0;exitY=1;exitDx=0;exitDy=0;fillColor=#60a917;strokeColor=#2D7600;" parent="1" source="gAPJxlzcZR4D2_HXCBE--7" target="gAPJxlzcZR4D2_HXCBE--11" edge="1">
          <mxGeometry width="50" height="50" relative="1" as="geometry">
            <mxPoint x="196.69453867848912" y="300.0045875737358" as="sourcePoint" />
            <mxPoint x="158" y="349" as="targetPoint" />
            <Array as="points" />
          </mxGeometry>
        </mxCell>
        <mxCell id="gAPJxlzcZR4D2_HXCBE--16" value="&lt;div style=&quot;background-color: rgb(30, 31, 34);&quot;&gt;&lt;pre style=&quot;&quot;&gt;&lt;font color=&quot;#bcbec4&quot; face=&quot;Times New Roman&quot;&gt;&lt;span style=&quot;font-size: 13.5pt;&quot;&gt;&lt;br&gt;&lt;/span&gt;&lt;/font&gt;&lt;/pre&gt;&lt;/div&gt;" style="edgeLabel;html=1;align=center;verticalAlign=middle;resizable=0;points=[];" parent="gAPJxlzcZR4D2_HXCBE--10" vertex="1" connectable="0">
          <mxGeometry x="-0.0962" y="5" relative="1" as="geometry">
            <mxPoint as="offset" />
          </mxGeometry>
        </mxCell>
        <mxCell id="gAPJxlzcZR4D2_HXCBE--17" value="ITERATE" style="edgeLabel;html=1;align=center;verticalAlign=middle;resizable=0;points=[];" parent="gAPJxlzcZR4D2_HXCBE--10" vertex="1" connectable="0">
          <mxGeometry x="0.0075" y="2" relative="1" as="geometry">
            <mxPoint as="offset" />
          </mxGeometry>
        </mxCell>
        <mxCell id="gAPJxlzcZR4D2_HXCBE--22" style="edgeStyle=orthogonalEdgeStyle;rounded=0;orthogonalLoop=1;jettySize=auto;html=1;exitX=1;exitY=0.5;exitDx=0;exitDy=0;fillColor=#e3c800;strokeColor=#B09500;" parent="1" source="gAPJxlzcZR4D2_HXCBE--7" target="gAPJxlzcZR4D2_HXCBE--21" edge="1">
          <mxGeometry relative="1" as="geometry" />
        </mxCell>
        <mxCell id="gAPJxlzcZR4D2_HXCBE--23" value="MODEL" style="edgeLabel;html=1;align=center;verticalAlign=middle;resizable=0;points=[];" parent="gAPJxlzcZR4D2_HXCBE--22" vertex="1" connectable="0">
          <mxGeometry x="-0.0571" y="3" relative="1" as="geometry">
            <mxPoint as="offset" />
          </mxGeometry>
        </mxCell>
        <mxCell id="gAPJxlzcZR4D2_HXCBE--11" value="Version" style="ellipse;whiteSpace=wrap;html=1;aspect=fixed;fillColor=#1ba1e2;strokeColor=#006EAF;fontColor=#ffffff;" parent="1" vertex="1">
          <mxGeometry x="-80" y="460" width="80" height="80" as="geometry" />
        </mxCell>
        <mxCell id="gAPJxlzcZR4D2_HXCBE--12" value="" style="endArrow=classic;html=1;rounded=0;entryX=0;entryY=0;entryDx=0;entryDy=0;fillColor=#dae8fc;strokeColor=#6c8ebf;exitX=0.938;exitY=0.7;exitDx=0;exitDy=0;exitPerimeter=0;" parent="1" source="gAPJxlzcZR4D2_HXCBE--2" target="gAPJxlzcZR4D2_HXCBE--11" edge="1">
          <mxGeometry width="50" height="50" relative="1" as="geometry">
            <mxPoint x="-341" y="171" as="sourcePoint" />
            <mxPoint x="440" y="360" as="targetPoint" />
            <Array as="points">
              <mxPoint x="-230" y="330" />
            </Array>
          </mxGeometry>
        </mxCell>
        <mxCell id="gAPJxlzcZR4D2_HXCBE--13" value="VERSION" style="edgeLabel;html=1;align=center;verticalAlign=middle;resizable=0;points=[];" parent="gAPJxlzcZR4D2_HXCBE--12" vertex="1" connectable="0">
          <mxGeometry x="0.0429" y="-1" relative="1" as="geometry">
            <mxPoint as="offset" />
          </mxGeometry>
        </mxCell>
        <mxCell id="gAPJxlzcZR4D2_HXCBE--90" value="" style="edgeStyle=orthogonalEdgeStyle;rounded=0;orthogonalLoop=1;jettySize=auto;html=1;fillColor=#a0522d;strokeColor=#6D1F00;" parent="1" source="gAPJxlzcZR4D2_HXCBE--21" target="gAPJxlzcZR4D2_HXCBE--24" edge="1">
          <mxGeometry relative="1" as="geometry" />
        </mxCell>
        <mxCell id="gAPJxlzcZR4D2_HXCBE--91" value="NEXT" style="edgeLabel;html=1;align=center;verticalAlign=middle;resizable=0;points=[];" parent="gAPJxlzcZR4D2_HXCBE--90" vertex="1" connectable="0">
          <mxGeometry x="-0.2667" y="3" relative="1" as="geometry">
            <mxPoint x="5" y="-7" as="offset" />
          </mxGeometry>
        </mxCell>
        <mxCell id="gAPJxlzcZR4D2_HXCBE--92" value="" style="edgeStyle=orthogonalEdgeStyle;rounded=0;orthogonalLoop=1;jettySize=auto;html=1;fillColor=#a0522d;strokeColor=#6D1F00;" parent="1" source="gAPJxlzcZR4D2_HXCBE--21" target="gAPJxlzcZR4D2_HXCBE--28" edge="1">
          <mxGeometry relative="1" as="geometry" />
        </mxCell>
        <mxCell id="gAPJxlzcZR4D2_HXCBE--93" value="NEXT" style="edgeLabel;html=1;align=center;verticalAlign=middle;resizable=0;points=[];" parent="gAPJxlzcZR4D2_HXCBE--92" vertex="1" connectable="0">
          <mxGeometry x="-0.25" y="-2" relative="1" as="geometry">
            <mxPoint as="offset" />
          </mxGeometry>
        </mxCell>
        <mxCell id="gAPJxlzcZR4D2_HXCBE--21" value="ModelNode" style="ellipse;whiteSpace=wrap;html=1;aspect=fixed;fillColor=#e3c800;fontColor=#000000;strokeColor=#B09500;" parent="1" vertex="1">
          <mxGeometry x="550" y="240" width="80" height="80" as="geometry" />
        </mxCell>
        <mxCell id="gAPJxlzcZR4D2_HXCBE--24" value="ModelNode" style="ellipse;whiteSpace=wrap;html=1;aspect=fixed;fillColor=#e3c800;fontColor=#000000;strokeColor=#B09500;" parent="1" vertex="1">
          <mxGeometry x="970" y="240" width="80" height="80" as="geometry" />
        </mxCell>
        <mxCell id="gAPJxlzcZR4D2_HXCBE--52" value="" style="edgeStyle=orthogonalEdgeStyle;rounded=0;orthogonalLoop=1;jettySize=auto;html=1;" parent="1" source="gAPJxlzcZR4D2_HXCBE--26" target="gAPJxlzcZR4D2_HXCBE--24" edge="1">
          <mxGeometry relative="1" as="geometry" />
        </mxCell>
        <mxCell id="gAPJxlzcZR4D2_HXCBE--53" value="NEXT" style="edgeLabel;html=1;align=center;verticalAlign=middle;resizable=0;points=[];" parent="gAPJxlzcZR4D2_HXCBE--52" vertex="1" connectable="0">
          <mxGeometry x="0.08" y="3" relative="1" as="geometry">
            <mxPoint x="17" y="-3" as="offset" />
          </mxGeometry>
        </mxCell>
        <mxCell id="gAPJxlzcZR4D2_HXCBE--28" value="ModelNode" style="ellipse;whiteSpace=wrap;html=1;aspect=fixed;fillColor=#e3c800;fontColor=#000000;strokeColor=#B09500;" parent="1" vertex="1">
          <mxGeometry x="550" y="10" width="80" height="80" as="geometry" />
        </mxCell>
        <mxCell id="gAPJxlzcZR4D2_HXCBE--54" value="" style="endArrow=classic;html=1;rounded=0;exitX=0.113;exitY=0.775;exitDx=0;exitDy=0;exitPerimeter=0;entryX=1;entryY=0;entryDx=0;entryDy=0;fillColor=#6a00ff;strokeColor=#3700CC;" parent="1" source="gAPJxlzcZR4D2_HXCBE--11" target="gAPJxlzcZR4D2_HXCBE--55" edge="1">
          <mxGeometry width="50" height="50" relative="1" as="geometry">
            <mxPoint x="12.759999999999962" y="460" as="sourcePoint" />
            <mxPoint x="-69.99572875253787" y="531.7157287525379" as="targetPoint" />
          </mxGeometry>
        </mxCell>
        <mxCell id="gAPJxlzcZR4D2_HXCBE--56" value="INSTANCE" style="edgeLabel;html=1;align=center;verticalAlign=middle;resizable=0;points=[];" parent="gAPJxlzcZR4D2_HXCBE--54" vertex="1" connectable="0">
          <mxGeometry x="-0.0417" y="2" relative="1" as="geometry">
            <mxPoint as="offset" />
          </mxGeometry>
        </mxCell>
        <mxCell id="gAPJxlzcZR4D2_HXCBE--55" value="Instance" style="ellipse;whiteSpace=wrap;html=1;aspect=fixed;fillColor=#d0cee2;strokeColor=#56517e;" parent="1" vertex="1">
          <mxGeometry x="-310" y="670" width="80" height="80" as="geometry" />
        </mxCell>
        <mxCell id="gAPJxlzcZR4D2_HXCBE--58" value="Instance" style="ellipse;whiteSpace=wrap;html=1;aspect=fixed;fillColor=#d0cee2;strokeColor=#56517e;" parent="1" vertex="1">
          <mxGeometry x="380" y="530" width="80" height="80" as="geometry" />
        </mxCell>
        <mxCell id="gAPJxlzcZR4D2_HXCBE--60" value="" style="endArrow=classic;html=1;rounded=0;exitX=1;exitY=1;exitDx=0;exitDy=0;entryX=0;entryY=0;entryDx=0;entryDy=0;fillColor=#6a00ff;strokeColor=#3700CC;" parent="1" source="gAPJxlzcZR4D2_HXCBE--7" target="gAPJxlzcZR4D2_HXCBE--58" edge="1">
          <mxGeometry width="50" height="50" relative="1" as="geometry">
            <mxPoint x="390" y="360" as="sourcePoint" />
            <mxPoint x="440" y="310" as="targetPoint" />
          </mxGeometry>
        </mxCell>
        <mxCell id="gAPJxlzcZR4D2_HXCBE--72" value="INSTANCE" style="edgeLabel;html=1;align=center;verticalAlign=middle;resizable=0;points=[];" parent="gAPJxlzcZR4D2_HXCBE--60" vertex="1" connectable="0">
          <mxGeometry x="-0.1959" y="-4" relative="1" as="geometry">
            <mxPoint y="-1" as="offset" />
          </mxGeometry>
        </mxCell>
        <mxCell id="gAPJxlzcZR4D2_HXCBE--70" value="" style="edgeStyle=orthogonalEdgeStyle;rounded=0;orthogonalLoop=1;jettySize=auto;html=1;fillColor=#a0522d;strokeColor=#6D1F00;" parent="1" source="gAPJxlzcZR4D2_HXCBE--66" target="gAPJxlzcZR4D2_HXCBE--69" edge="1">
          <mxGeometry relative="1" as="geometry" />
        </mxCell>
        <mxCell id="gAPJxlzcZR4D2_HXCBE--71" value="NEXT" style="edgeLabel;html=1;align=center;verticalAlign=middle;resizable=0;points=[];" parent="gAPJxlzcZR4D2_HXCBE--70" vertex="1" connectable="0">
          <mxGeometry x="-0.025" y="-3" relative="1" as="geometry">
            <mxPoint x="-17" y="2" as="offset" />
          </mxGeometry>
        </mxCell>
        <mxCell id="gAPJxlzcZR4D2_HXCBE--66" value="ModelNode" style="ellipse;whiteSpace=wrap;html=1;aspect=fixed;fillColor=#e3c800;fontColor=#000000;strokeColor=#B09500;" parent="1" vertex="1">
          <mxGeometry x="-80" y="680" width="80" height="80" as="geometry" />
        </mxCell>
        <mxCell id="gAPJxlzcZR4D2_HXCBE--69" value="ModelNode" style="ellipse;whiteSpace=wrap;html=1;aspect=fixed;fillColor=#e3c800;fontColor=#000000;strokeColor=#B09500;" parent="1" vertex="1">
          <mxGeometry x="-80" y="890" width="80" height="80" as="geometry" />
        </mxCell>
        <mxCell id="gAPJxlzcZR4D2_HXCBE--77" value="" style="edgeStyle=orthogonalEdgeStyle;rounded=0;orthogonalLoop=1;jettySize=auto;html=1;strokeColor=#6D1F00;" parent="1" source="gAPJxlzcZR4D2_HXCBE--73" target="gAPJxlzcZR4D2_HXCBE--76" edge="1">
          <mxGeometry relative="1" as="geometry" />
        </mxCell>
        <mxCell id="gAPJxlzcZR4D2_HXCBE--78" value="NEXT" style="edgeLabel;html=1;align=center;verticalAlign=middle;resizable=0;points=[];" parent="gAPJxlzcZR4D2_HXCBE--77" vertex="1" connectable="0">
          <mxGeometry x="-0.175" y="4" relative="1" as="geometry">
            <mxPoint y="-6" as="offset" />
          </mxGeometry>
        </mxCell>
        <mxCell id="gAPJxlzcZR4D2_HXCBE--73" value="InstanceNode" style="ellipse;whiteSpace=wrap;html=1;aspect=fixed;fillColor=#76608a;fontColor=#ffffff;strokeColor=#432D57;" parent="1" vertex="1">
          <mxGeometry x="660" y="530" width="80" height="80" as="geometry" />
        </mxCell>
        <mxCell id="gAPJxlzcZR4D2_HXCBE--75" value="BUSINESS" style="endArrow=classic;html=1;rounded=0;exitX=1;exitY=0.5;exitDx=0;exitDy=0;entryX=0;entryY=0.5;entryDx=0;entryDy=0;fillColor=#647687;strokeColor=#FF99CC;fontColor=#000000;" parent="1" source="gAPJxlzcZR4D2_HXCBE--58" target="gAPJxlzcZR4D2_HXCBE--73" edge="1">
          <mxGeometry width="50" height="50" relative="1" as="geometry">
            <mxPoint x="390" y="360" as="sourcePoint" />
            <mxPoint x="440" y="310" as="targetPoint" />
          </mxGeometry>
        </mxCell>
        <mxCell id="gAPJxlzcZR4D2_HXCBE--76" value="InstanceNode" style="ellipse;whiteSpace=wrap;html=1;aspect=fixed;fillColor=#76608a;fontColor=#ffffff;strokeColor=#432D57;" parent="1" vertex="1">
          <mxGeometry x="910" y="530" width="80" height="80" as="geometry" />
        </mxCell>
        <mxCell id="gAPJxlzcZR4D2_HXCBE--79" value="InstanceNode" style="ellipse;whiteSpace=wrap;html=1;aspect=fixed;fillColor=#76608a;fontColor=#ffffff;strokeColor=#432D57;" parent="1" vertex="1">
          <mxGeometry x="520" y="750" width="80" height="80" as="geometry" />
        </mxCell>
        <mxCell id="gAPJxlzcZR4D2_HXCBE--81" value="" style="endArrow=classic;html=1;rounded=0;exitX=1;exitY=1;exitDx=0;exitDy=0;fillColor=#647687;strokeColor=#FF99CC;" parent="1" source="gAPJxlzcZR4D2_HXCBE--58" target="gAPJxlzcZR4D2_HXCBE--79" edge="1">
          <mxGeometry width="50" height="50" relative="1" as="geometry">
            <mxPoint x="360" y="430" as="sourcePoint" />
            <mxPoint x="420" y="470" as="targetPoint" />
          </mxGeometry>
        </mxCell>
        <mxCell id="gAPJxlzcZR4D2_HXCBE--82" value="BUSINESS" style="edgeLabel;html=1;align=center;verticalAlign=middle;resizable=0;points=[];" parent="gAPJxlzcZR4D2_HXCBE--81" vertex="1" connectable="0">
          <mxGeometry x="-0.0146" y="2" relative="1" as="geometry">
            <mxPoint x="-1" as="offset" />
          </mxGeometry>
        </mxCell>
        <mxCell id="gAPJxlzcZR4D2_HXCBE--83" value="" style="endArrow=classic;html=1;rounded=0;fillColor=#e51400;strokeColor=#B20000;entryX=0;entryY=0;entryDx=0;entryDy=0;exitX=0.938;exitY=0.713;exitDx=0;exitDy=0;exitPerimeter=0;" parent="1" source="gAPJxlzcZR4D2_HXCBE--2" target="gAPJxlzcZR4D2_HXCBE--11" edge="1">
          <mxGeometry width="50" height="50" relative="1" as="geometry">
            <mxPoint x="-310" y="150" as="sourcePoint" />
            <mxPoint x="20" y="410" as="targetPoint" />
            <Array as="points">
              <mxPoint x="-120" y="300" />
            </Array>
          </mxGeometry>
        </mxCell>
        <mxCell id="gAPJxlzcZR4D2_HXCBE--84" value="ACTIVE" style="edgeLabel;html=1;align=center;verticalAlign=middle;resizable=0;points=[];" parent="gAPJxlzcZR4D2_HXCBE--83" vertex="1" connectable="0">
          <mxGeometry x="-0.2321" y="-1" relative="1" as="geometry">
            <mxPoint x="37" y="53" as="offset" />
          </mxGeometry>
        </mxCell>
        <mxCell id="gAPJxlzcZR4D2_HXCBE--89" value="" style="edgeStyle=orthogonalEdgeStyle;rounded=0;orthogonalLoop=1;jettySize=auto;html=1;fillColor=#a0522d;strokeColor=#6D1F00;" parent="1" source="gAPJxlzcZR4D2_HXCBE--26" target="gAPJxlzcZR4D2_HXCBE--24" edge="1">
          <mxGeometry relative="1" as="geometry" />
        </mxCell>
        <mxCell id="gAPJxlzcZR4D2_HXCBE--26" value="ModelNode" style="ellipse;whiteSpace=wrap;html=1;aspect=fixed;fillColor=#e3c800;fontColor=#000000;strokeColor=#B09500;" parent="1" vertex="1">
          <mxGeometry x="970" y="20" width="80" height="80" as="geometry" />
        </mxCell>
        <mxCell id="gAPJxlzcZR4D2_HXCBE--94" value="" style="endArrow=classic;html=1;rounded=0;entryX=0.038;entryY=0.7;entryDx=0;entryDy=0;fillColor=#a0522d;strokeColor=#6D1F00;exitX=1;exitY=0.35;exitDx=0;exitDy=0;exitPerimeter=0;entryPerimeter=0;" parent="1" source="gAPJxlzcZR4D2_HXCBE--21" target="gAPJxlzcZR4D2_HXCBE--26" edge="1">
          <mxGeometry width="50" height="50" relative="1" as="geometry">
            <mxPoint x="430" y="260" as="sourcePoint" />
            <mxPoint x="480" y="210" as="targetPoint" />
          </mxGeometry>
        </mxCell>
        <mxCell id="gAPJxlzcZR4D2_HXCBE--95" value="NEXT" style="edgeLabel;html=1;align=center;verticalAlign=middle;resizable=0;points=[];" parent="gAPJxlzcZR4D2_HXCBE--94" vertex="1" connectable="0">
          <mxGeometry x="0.1598" y="2" relative="1" as="geometry">
            <mxPoint as="offset" />
          </mxGeometry>
        </mxCell>
        <mxCell id="gAPJxlzcZR4D2_HXCBE--110" value="&lt;div style=&quot;text-align: left;&quot;&gt;&lt;b&gt;Version-流程版本&lt;/b&gt;&lt;/div&gt;&lt;div style=&quot;text-align: left;&quot;&gt;version：integer 版本号&lt;/div&gt;&lt;div style=&quot;text-align: left;&quot;&gt;cycle：integer 退回到发起节点的次数上限&lt;/div&gt;&lt;div style=&quot;text-align: left;&quot;&gt;terminatedMethod：string 终止方法名，强行终止流程时，回滚流程相关的业务系统数据&lt;/div&gt;&lt;div style=&quot;text-align: left;&quot;&gt;createBy：string 创建人标识&lt;/div&gt;&lt;div style=&quot;text-align: left;&quot;&gt;createByName：string创建人名称&lt;/div&gt;&lt;div style=&quot;text-align: left;&quot;&gt;createTime：localdateTime 创建时间&lt;/div&gt;" style="text;html=1;align=center;verticalAlign=middle;whiteSpace=wrap;rounded=0;fillColor=#1ba1e2;fontColor=#ffffff;strokeColor=#006EAF;" parent="1" vertex="1">
          <mxGeometry x="60" y="80" width="280" height="140" as="geometry" />
        </mxCell>
        <mxCell id="gAPJxlzcZR4D2_HXCBE--115" value="&lt;div style=&quot;&quot;&gt;&lt;b style=&quot;background-color: initial;&quot;&gt;Process-流程类型&lt;/b&gt;&lt;/div&gt;&lt;div style=&quot;&quot;&gt;&lt;div style=&quot;&quot;&gt;name：string 流程名称&lt;/div&gt;&lt;div&gt;&lt;span style=&quot;background-color: initial;&quot;&gt;active：boolean 是否启用&lt;/span&gt;&lt;br&gt;&lt;/div&gt;&lt;div&gt;&lt;span style=&quot;background-color: initial;&quot;&gt;activeVersion：integer 当前启用版本&lt;/span&gt;&lt;br&gt;&lt;/div&gt;&lt;div&gt;&lt;span style=&quot;background-color: initial;&quot;&gt;activeHistory：list 版本激活历史（[{&quot;version:&quot;版本&quot;,&quot;activeId&quot;:&quot;启用人标识&quot;,&quot;activeName&quot;:&quot;启用人名称&quot;,&quot;activeTime&quot;:&quot;yyyy-MM-dd HH:mm:ss&quot;},...）&lt;/span&gt;&lt;br&gt;&lt;/div&gt;&lt;div&gt;&lt;span style=&quot;background-color: initial;&quot;&gt;createBy：string 创建人标识&lt;/span&gt;&lt;br&gt;&lt;/div&gt;&lt;div&gt;&lt;span style=&quot;background-color: initial;&quot;&gt;updateBy：string 更新人标识&lt;/span&gt;&lt;br&gt;&lt;/div&gt;&lt;div&gt;&lt;span style=&quot;background-color: initial;&quot;&gt;createTime：localdatetime 创建时间&lt;/span&gt;&lt;br&gt;&lt;/div&gt;&lt;div&gt;&lt;span style=&quot;background-color: initial;&quot;&gt;updateTime：localdatetime 更新时间&lt;/span&gt;&lt;/div&gt;&lt;/div&gt;" style="text;html=1;align=left;verticalAlign=middle;whiteSpace=wrap;rounded=0;fillColor=#d80073;fontColor=#ffffff;strokeColor=#A50040;" parent="1" vertex="1">
          <mxGeometry x="-555" y="-90" width="410" height="170" as="geometry" />
        </mxCell>
        <mxCell id="gAPJxlzcZR4D2_HXCBE--116" value="&lt;b&gt;Instance-流程实例&lt;/b&gt;&lt;div&gt;&lt;div&gt;解耦Version和InstanceNode，避免Version成为超级节点&lt;/div&gt;&lt;/div&gt;" style="text;html=1;align=left;verticalAlign=middle;whiteSpace=wrap;rounded=0;fillColor=#d0cee2;strokeColor=#d0cee2;" parent="1" vertex="1">
          <mxGeometry x="-310" y="765" width="200" height="50" as="geometry" />
        </mxCell>
        <mxCell id="gAPJxlzcZR4D2_HXCBE--117" value="&lt;b&gt;ModelNode-模型节点&lt;/b&gt;&lt;div&gt;&lt;div style=&quot;&quot;&gt;nodeUid：String 创建模型时生成的uid，关联实例节点，同一个模型中不能重复&lt;/div&gt;&lt;div style=&quot;&quot;&gt;name：string 节点名称&lt;/div&gt;&lt;div style=&quot;&quot;&gt;identity：string 节点标识，用于在节点名称变动或不同的情况下进行节点查询&lt;/div&gt;&lt;div style=&quot;&quot;&gt;operationType：string 节点操作类型，结合业务由开发人员自定义，用于实际候选人的确定和验证&lt;/div&gt;&lt;div style=&quot;&quot;&gt;operationCandidate：string 模型节点操作候选人（[{&quot;id&quot;:&quot;&quot;,&quot;name&quot;:&quot;&quot;},..]），结合operationType提供实际候选人的选择范围&lt;/div&gt;&lt;div style=&quot;&quot;&gt;operationMethod：string 节点方法名称&lt;/div&gt;&lt;div style=&quot;&quot;&gt;onlyPassExecute：boolean 是否只有节点“同意”才执行方法&lt;/div&gt;&lt;div style=&quot;&quot;&gt;autoInterval：integer 自动执行间隔 （只精确到日期，x天后）&lt;/div&gt;&lt;div style=&quot;&quot;&gt;defaultPassCondition：integer 同意时的默认跳转条件&lt;/div&gt;&lt;div style=&quot;&quot;&gt;location：integer 节点位置/类型 （1-开始/发起，2-中间，3-完成/一致同意，4-终止/拒绝结束）&lt;/div&gt;&lt;div style=&quot;&quot;&gt;x：float(double) x坐标&lt;/div&gt;&lt;div style=&quot;&quot;&gt;y：float(double) y坐标&lt;/div&gt;&lt;/div&gt;" style="text;html=1;align=left;verticalAlign=middle;whiteSpace=wrap;rounded=0;fillColor=#e3c800;fontColor=#000000;strokeColor=#E3C800;" parent="1" vertex="1">
          <mxGeometry x="20" y="710" width="440" height="230" as="geometry" />
        </mxCell>
        <mxCell id="gAPJxlzcZR4D2_HXCBE--118" value="&lt;b&gt;InstanceNode-实例节点&lt;/b&gt;&lt;div&gt;&lt;div style=&quot;&quot;&gt;modelNodeUid：String 模型节点uid&lt;/div&gt;&lt;div style=&quot;&quot;&gt;name：string 节点名称&lt;/div&gt;&lt;div style=&quot;&quot;&gt;identity：string 节点标识，用于在节点名称变动或不同的情况下进行节点查询&lt;/div&gt;&lt;div style=&quot;&quot;&gt;status：integer 节点状态（1-待办，2-同意，3-拒绝，4-转发）&lt;/div&gt;&lt;div style=&quot;&quot;&gt;operationType：string 节点操作类型，结合业务由开发人员自定义，用于实际候选人的确定和验证&lt;/div&gt;&lt;div style=&quot;&quot;&gt;operationCandidate：string 实例节点操作候选人（[{&quot;id&quot;:&quot;&quot;,&quot;name&quot;:&quot;&quot;},..]），结合operationType 验证实际候选人&lt;/div&gt;&lt;div style=&quot;&quot;&gt;operationMethod：string 节点方法名称&lt;/div&gt;&lt;div style=&quot;&quot;&gt;onlyPassExecute：boolean 是否只有节点“同意”才执行方法&lt;/div&gt;&lt;div style=&quot;&quot;&gt;autoTime：date 自动执行日期&lt;/div&gt;&lt;div style=&quot;&quot;&gt;defaultPassCondition：integer 同意时的默认跳转条件&lt;/div&gt;&lt;div style=&quot;&quot;&gt;location：integer 节点位置/类型&amp;nbsp;&amp;nbsp;&lt;span style=&quot;background-color: initial;&quot;&gt;（1-开始/发起，2-中间，3-完成/一致同意，4-终止/拒绝结束）&lt;/span&gt;&lt;/div&gt;&lt;div style=&quot;&quot;&gt;operationBy：string 实际操作人（{&quot;id&quot;:&quot;&quot;,&quot;name&quot;:&quot;&quot;}）&lt;/div&gt;&lt;div style=&quot;&quot;&gt;operationRemark：string 操作备注&lt;/div&gt;&lt;div style=&quot;&quot;&gt;beginTime：localdatetime 节点开始时间&lt;/div&gt;&lt;div style=&quot;&quot;&gt;endTime：localdatetime 节点结束时间&lt;/div&gt;&lt;div style=&quot;&quot;&gt;during：string 节点持续时间&lt;/div&gt;&lt;div style=&quot;&quot;&gt;ProcessDuring：string 节点结束时流程持续时间&lt;/div&gt;&lt;/div&gt;&lt;div style=&quot;&quot;&gt;graft：string&amp;nbsp;版本移植，表示在该节点更换了流程实例版本模型 （v1--&amp;gt;v2）&lt;/div&gt;" style="text;html=1;align=left;verticalAlign=middle;whiteSpace=wrap;rounded=0;fillColor=#76608a;fontColor=#ffffff;strokeColor=#76608a;" parent="1" vertex="1">
          <mxGeometry x="610" y="630" width="600" height="275" as="geometry" />
        </mxCell>
        <mxCell id="gAPJxlzcZR4D2_HXCBE--120" value="&lt;b&gt;ACTIVE-激活关系&lt;/b&gt;&lt;div&gt;Process指向当前激活的Version，一个Process只能同时存在一条该关系&lt;/div&gt;&lt;div&gt;&lt;br&gt;&lt;/div&gt;&lt;div&gt;createBy：string&amp;nbsp;操作人标识&lt;/div&gt;&lt;div&gt;createTime：localdatetime&amp;nbsp;操作时间&lt;/div&gt;" style="text;html=1;align=left;verticalAlign=middle;whiteSpace=wrap;rounded=0;fillColor=#e51400;fontColor=#ffffff;strokeColor=#B20000;" parent="1" vertex="1">
          <mxGeometry x="-100" y="250" width="210" height="100" as="geometry" />
        </mxCell>
        <mxCell id="gAPJxlzcZR4D2_HXCBE--121" value="&lt;b&gt;VERSION-版本关系&lt;/b&gt;&lt;div&gt;Process指向Version，表示流程下的版本&lt;/div&gt;" style="text;html=1;align=left;verticalAlign=middle;whiteSpace=wrap;rounded=0;fillColor=#dae8fc;strokeColor=#dae8fc;" parent="1" vertex="1">
          <mxGeometry x="-390" y="290" width="130" height="50" as="geometry" />
        </mxCell>
        <mxCell id="gAPJxlzcZR4D2_HXCBE--122" value="&lt;b&gt;MODEL-模型关系&lt;/b&gt;&lt;div&gt;Version指向ModelNode，表示其为改Version的第一个模型节点，一个Version只能存在一条该关系&lt;/div&gt;" style="text;html=1;align=left;verticalAlign=middle;whiteSpace=wrap;rounded=0;fillColor=#B09500;fontColor=#ffffff;strokeColor=#B09500;" parent="1" vertex="1">
          <mxGeometry x="-10" y="570" width="210" height="60" as="geometry" />
        </mxCell>
        <mxCell id="gAPJxlzcZR4D2_HXCBE--123" value="&lt;b&gt;INSTANCE-实例关系&lt;/b&gt;&lt;div&gt;Version指向Instance，一个Version只能存在一条该关系&lt;/div&gt;" style="text;html=1;align=left;verticalAlign=middle;whiteSpace=wrap;rounded=0;fillColor=#3700CC;fontColor=#ffffff;strokeColor=#3700CC;" parent="1" vertex="1">
          <mxGeometry x="-320" y="510" width="190" height="60" as="geometry" />
        </mxCell>
        <mxCell id="gAPJxlzcZR4D2_HXCBE--124" value="&lt;div style=&quot;&quot;&gt;&lt;b&gt;ITERATE-迭代关系&lt;/b&gt;&lt;/div&gt;&lt;div style=&quot;&quot;&gt;Version指向Version，表示后者基于该Version修改迭代而来&lt;/div&gt;" style="text;html=1;align=left;verticalAlign=middle;whiteSpace=wrap;rounded=0;fillColor=#2D7600;fontColor=#ffffff;strokeColor=#2D7600;" parent="1" vertex="1">
          <mxGeometry x="70" y="430" width="170" height="60" as="geometry" />
        </mxCell>
        <mxCell id="gAPJxlzcZR4D2_HXCBE--127" value="&lt;b&gt;NEXT-步奏关系&lt;/b&gt;&lt;div&gt;由ModelNode/InstanceNode指向&lt;span style=&quot;background-color: initial;&quot;&gt;ModelNode/InstanceNode，表示后者为前者该条件的下一个节点&lt;/span&gt;&lt;/div&gt;&lt;div&gt;&lt;span style=&quot;background-color: initial;&quot;&gt;&lt;br&gt;&lt;/span&gt;&lt;/div&gt;&lt;div&gt;&lt;span style=&quot;background-color: initial;&quot;&gt;condition：integer&amp;nbsp;跳转条件&lt;/span&gt;&lt;/div&gt;" style="text;html=1;align=left;verticalAlign=middle;whiteSpace=wrap;rounded=0;fillColor=#6D1F00;fontColor=#FFFFFF;" parent="1" vertex="1">
          <mxGeometry x="670" width="250" height="100" as="geometry" />
        </mxCell>
        <mxCell id="gAPJxlzcZR4D2_HXCBE--128" value="&lt;div&gt;&lt;b&gt;BUSINESS-业务关系&lt;/b&gt;&lt;/div&gt;&lt;div&gt;&lt;span style=&quot;background-color: initial;&quot;&gt;由Instance指向InstanceNode，&lt;/span&gt;&lt;span style=&quot;background-color: initial;&quot;&gt;表示一个业务流程实例，后者为一个实例发起节点&lt;/span&gt;&lt;/div&gt;&lt;div&gt;&lt;br&gt;&lt;/div&gt;&lt;div&gt;key：string 业务key，用于流程实例标识，全局唯一&lt;/div&gt;&lt;div&gt;cycle：integer 流程实例目前退回发起人的次数&lt;/div&gt;&lt;div&gt;num：流程实例目前的节点数量&lt;/div&gt;&lt;div&gt;currentNodeId：流程实例目前待办节点的id&lt;/div&gt;&lt;div&gt;status：integer 流程实例状态 （1-进行中，2-通过，3-未通过，4-强行终止）&lt;/div&gt;&lt;div&gt;operationBy：string 最近操作人 （{&quot;id&quot;:&quot;&quot;,&quot;name&quot;:&quot;&quot;}）&lt;/div&gt;&lt;div&gt;operationCandidate：string 流程实例目前待办节点的候选人 （[{&quot;id&quot;:&quot;&quot;,&quot;name&quot;:&quot;&quot;},..]）&lt;/div&gt;&lt;div&gt;beginTime：localdatetime 流程实例开始时间&lt;/div&gt;&lt;div&gt;endTime：localdatetime 最新的节点结束时间&lt;/div&gt;&lt;div&gt;during：string 最新的节点结束时间为止，流程实例持续时间&lt;/div&gt;" style="text;html=1;align=left;verticalAlign=middle;whiteSpace=wrap;rounded=0;fillColor=#FF99CC;" parent="1" vertex="1">
          <mxGeometry x="470" y="330" width="480" height="190" as="geometry" />
        </mxCell>
      </root>
    </mxGraphModel>
  </diagram>
</mxfile>
